<?xml version="1.0" encoding="UTF-8"?>
<svg width="447px" height="448px" viewBox="0 0 447 448" version="1.1" xmlns="http://www.w3.org/2000/svg" xmlns:xlink="http://www.w3.org/1999/xlink">
    <!-- Generator: Sketch 41.2 (35397) - http://www.bohemiancoding.com/sketch -->
    <title>zToA</title>
    <desc>Created with Sketch.</desc>
    <defs></defs>
    <g id="Page-1" stroke="none" stroke-width="1" fill="none" fill-rule="evenodd">
        <g id="zToA" fill="#FFFFFF">
            <path d="M29.125,0 L29.125,39.312 L122.406,39.312 C114.606,48.712 106.163,59.348 97.062,71.249 C87.962,83.151 79.016,95.457 70.218,108.155 C61.421,120.854 52.978,133.437 44.875,145.937 C36.773,158.437 29.909,169.794 24.313,179.999 L24.313,207.905 L187.813,207.905 L187.813,168.593 L81.907,168.593 C89.109,156.594 97.331,144.011 106.532,130.812 C115.733,117.613 125.039,104.805 134.438,92.406 C143.837,80.007 152.921,68.563 161.719,58.062 C170.517,47.561 178.129,39.004 184.531,32.406 L184.531,0 L29.125,0 L29.125,0 Z M323.064,78 C321.101,78 319.14,79.086 317.752,80.938 C316.364,82.789 315.565,85.383 315.564,88 L315.564,274 L288.283,246.718 C286.45,244.886 283.843,243.836 281.252,243.874 C278.759,243.913 276.297,244.956 274.533,246.718 L247.033,274.218 C245.233,276.018 244.189,278.547 244.189,281.093 C244.189,283.639 245.232,286.168 247.033,287.968 L338.689,379.593 C340.489,381.393 343.018,382.437 345.564,382.437 C348.11,382.437 350.639,381.394 352.439,379.593 L444.064,287.968 C445.864,286.168 446.939,283.639 446.939,281.093 C446.939,278.547 445.864,276.018 444.064,274.218 L416.564,246.718 C414.765,244.922 412.262,243.874 409.72,243.874 C407.178,243.874 404.644,244.922 402.845,246.718 L375.564,273.999 L375.564,87.999 C375.564,85.381 374.765,82.788 373.376,80.937 C371.988,79.086 370.027,78 368.064,77.999 L323.064,78 L323.064,78 Z M83.719,239.969 C76.718,254.367 69.969,269.119 63.469,284.219 C56.969,299.319 50.358,315.263 43.656,332.063 C36.954,348.863 30.122,366.782 23.125,385.782 C16.127,404.782 8.738,425.476 0.937,447.876 L49.532,447.876 C51.735,440.674 54.178,433.256 56.876,425.657 C59.574,418.058 62.213,410.475 64.814,402.876 L145.814,402.876 C148.414,410.475 151.085,418.058 153.783,425.657 C156.481,433.256 158.923,440.674 161.127,447.876 L211.221,447.876 C203.42,425.476 196.034,404.783 189.033,385.782 C182.032,366.782 175.169,348.863 168.471,332.063 C161.772,315.263 155.134,299.32 148.533,284.219 C141.932,269.119 135.207,254.367 128.408,239.969 L83.719,239.969 L83.719,239.969 Z M105.032,287.063 C106.234,290.066 107.814,294.175 109.813,299.375 C111.812,304.575 114.175,310.576 116.875,317.375 C119.576,324.174 122.406,331.675 125.406,339.875 C128.406,348.075 131.52,356.685 134.718,365.687 L75.625,365.687 C78.823,356.684 81.962,348.075 85.063,339.875 C88.163,331.675 91.025,324.174 93.625,317.375 C96.225,310.576 98.532,304.575 100.531,299.375 C102.531,294.176 104.031,290.066 105.032,287.063 L105.032,287.063 Z" id="Shape"></path>
        </g>
    </g>
</svg>