<?xml version="1.0" encoding="UTF-8"?>
<svg width="447px" height="448px" viewBox="0 0 447 448" version="1.1" xmlns="http://www.w3.org/2000/svg" xmlns:xlink="http://www.w3.org/1999/xlink">
    <!-- Generator: Sketch 41.2 (35397) - http://www.bohemiancoding.com/sketch -->
    <title>aToZ</title>
    <desc>Created with Sketch.</desc>
    <defs></defs>
    <g id="Page-1" stroke="none" stroke-width="1" fill="none" fill-rule="evenodd">
        <g id="aToZ" fill="#FFFFFF">
            <path d="M83.719,-7.88860905e-31 C76.718,14.398 69.969,29.15 63.469,44.25 C56.969,59.35 50.358,75.294 43.657,92.094 C36.955,108.894 30.123,126.813 23.126,145.813 C16.128,164.813 8.739,185.507 0.938,207.907 L49.532,207.907 C51.735,200.705 54.178,193.287 56.876,185.688 C59.574,178.089 62.213,170.506 64.814,162.907 L145.814,162.907 C148.414,170.506 151.085,178.089 153.783,185.688 C156.481,193.287 158.923,200.705 161.127,207.907 L211.221,207.907 C203.42,185.507 196.034,164.814 189.033,145.813 C182.032,126.813 175.169,108.894 168.471,92.094 C161.772,75.294 155.134,59.351 148.533,44.25 C141.932,29.15 135.207,14.398 128.408,-7.10542736e-15 C128.408,-7.88860905e-31 83.719,-7.88860905e-31 83.719,-7.88860905e-31 Z M105.031,47.094 C106.233,50.097 107.813,54.206 109.812,59.406 C111.811,64.606 114.174,70.607 116.874,77.406 C119.575,84.205 122.405,91.706 125.405,99.906 C128.405,108.106 131.519,116.716 134.717,125.718 L75.625,125.718 C78.823,116.715 81.962,108.106 85.063,99.906 C88.163,91.706 91.025,84.205 93.625,77.406 C96.225,70.607 98.532,64.606 100.531,59.406 C102.53,54.206 104.03,50.097 105.031,47.094 Z M323.062,78 C321.099,78 319.138,79.086 317.75,80.938 C316.362,82.79 315.563,85.383 315.562,88 L315.562,274 L288.281,246.719 C286.448,244.887 283.841,243.837 281.25,243.875 C278.757,243.914 276.295,244.957 274.531,246.719 L247.031,274.219 C245.231,276.019 244.187,278.548 244.187,281.094 C244.187,283.64 245.23,286.169 247.031,287.969 L338.687,379.594 C340.487,381.394 343.016,382.438 345.562,382.438 C348.108,382.438 350.637,381.395 352.437,379.594 L444.062,287.969 C445.862,286.169 446.937,283.64 446.937,281.094 C446.937,278.548 445.862,276.019 444.062,274.219 L416.562,246.719 C414.763,244.923 412.26,243.875 409.718,243.875 C407.176,243.875 404.642,244.923 402.843,246.719 L375.561,274 L375.561,88 C375.561,85.382 374.762,82.789 373.373,80.938 C371.984,79.087 370.024,78.001 368.061,78 L323.062,78 Z M29.125,239.969 L29.125,279.281 L122.406,279.281 C114.606,288.681 106.163,299.317 97.062,311.219 C87.962,323.121 79.016,335.427 70.218,348.125 C61.42,360.823 52.977,373.406 44.874,385.906 C36.772,398.406 29.908,409.764 24.312,419.968 L24.312,447.874 L187.812,447.874 L187.812,408.562 L81.906,408.562 C89.108,396.562 97.33,383.98 106.531,370.781 C115.732,357.582 125.038,344.774 134.437,332.375 C143.836,319.976 152.92,308.533 161.718,298.031 C170.516,287.53 178.128,278.973 184.53,272.375 L184.53,239.969 L29.125,239.969 L29.125,239.969 Z" id="Shape"></path>
        </g>
    </g>
</svg>